<svg xmlns="http://www.w3.org/2000/svg" viewBox="0 0 112.41 22.78"><defs><style>.cls-1{fill:blue;}</style></defs><g id="Layer_2" data-name="Layer 2"><g id="Layer_1-2" data-name="Layer 1"><path class="cls-1" d="M59.78,20.22,57.1,17.54l2.24-9.83L51,0,40.18,3.34,37.66,14.4,46,22.12l8.77-2.7,2.92,2.92a1.5,1.5,0,0,0,2.12,0A1.49,1.49,0,0,0,59.78,20.22Zm-5.5-3.8-7.53,2.32L41,13.38,42.72,5.7l7.54-2.33L56,8.74Z"/><path d="M12.62,18.33V15.24a.42.42,0,0,0-.77-.24L9.57,18.26a.43.43,0,0,1-.7,0L6.6,15a.42.42,0,0,0-.77.24v3.09a.43.43,0,0,1-.43.43h-5A.42.42,0,0,1,0,18.33V3.65a.42.42,0,0,1,.42-.43H5.61A.43.43,0,0,1,6,3.4L8.87,7.57a.42.42,0,0,0,.69,0L12.49,3.4a.44.44,0,0,1,.35-.18H18a.43.43,0,0,1,.43.43V18.33a.43.43,0,0,1-.43.43H13A.42.42,0,0,1,12.62,18.33Z"/><path d="M30.84,18.59,30.42,17a.24.24,0,0,0-.22-.16H26.12a.24.24,0,0,0-.22.16l-.41,1.62a.22.22,0,0,1-.21.17H19.71a.22.22,0,0,1-.21-.28l4-15.09a.21.21,0,0,1,.21-.17h9a.21.21,0,0,1,.21.17l4,15.09a.22.22,0,0,1-.21.28H31.06A.23.23,0,0,1,30.84,18.59ZM28,9.21l-.9,3.44a.23.23,0,0,0,.22.28h1.8a.23.23,0,0,0,.21-.28l-.9-3.44A.22.22,0,0,0,28,9.21Z"/><path d="M77.45,11a7.22,7.22,0,0,1-2.53,5.56,8.49,8.49,0,0,1-11.45,0A7.24,7.24,0,0,1,61,11V4a.77.77,0,0,1,.76-.77h3.7a.77.77,0,0,1,.77.77v7a2.75,2.75,0,0,0,.9,2,3,3,0,0,0,4.21,0,2.7,2.7,0,0,0,.92-2V4A.78.78,0,0,1,73,3.22h3.7a.78.78,0,0,1,.77.77Z"/><path d="M90.85,18.76a5.54,5.54,0,0,1-3.88-2L85.36,15.2a.65.65,0,0,0-1.11.46V18.1a.66.66,0,0,1-.65.66H80.08a1.65,1.65,0,0,1-1.65-1.65v-6a.65.65,0,0,1,.65-.65h8.86a1.1,1.1,0,0,0,.81-.34,1.14,1.14,0,0,0,.35-.82,1.15,1.15,0,0,0-.35-.82,1.11,1.11,0,0,0-.81-.35H79.08a.65.65,0,0,1-.65-.65V3.87a.65.65,0,0,1,.65-.65H89.49a5.41,5.41,0,0,1,3.8,1.56,5,5,0,0,1,.7,6.6,5,5,0,0,1-2.4,1.9,1.13,1.13,0,0,0,1,.62h2.64a.66.66,0,0,1,.66.65V18.1a.67.67,0,0,1-.66.66Z"/><path d="M96.87,17.82V4.16a.94.94,0,0,1,.94-.94h13.66a.94.94,0,0,1,.94.94v3a.94.94,0,0,1-.94.94H102.7V9h4.89a.94.94,0,0,1,.94.93v2.21a.94.94,0,0,1-.94.94H102.7v.87h8.77a.94.94,0,0,1,.94.93v3a.94.94,0,0,1-.94.94H97.81A.94.94,0,0,1,96.87,17.82Z"/></g></g></svg>